# xmcd CD database file
#
# Track frame offsets:
#	150
#	16262
#	30617
#	46027
#	60587
#	72557
#	88687
#	99852
#	112587
#	128812
#	146135
#	162615
#	179592
#	195992
#	207452
#	224000
#	237800
#	253037
#	267697
#	285040
#	297112
#	311687
#	314117
#
# Disc length: 4488 seconds
#
# Revision: 2
# Processed by: cddbd v1.4PL0 Copyright (c) Steve Scherf et al.
# Submitted via: CDex 1.50beta9
#
DISCID=59118617
DTITLE=Various Artist - CDX Volume 68 - Oct 1993
DYEAR=1993
DGENRE=Country
TTITLE0=Garth Brooks - American Honky-Tonk Bar Association
TTITLE1=Lorrie Morgan - Crying Time
TTITLE2=Blackhawk - Goodbye Says It All
TTITLE3=Bobbie Cryner - He Feels Guilty
TTITLE4=Patricia Conroy - Here We Go Again
TTITLE5=Suzy Bogguss - Hey Cinderella
TTITLE6=George Jones - High-Tech Redneck
TTITLE7=Jim Varney - Hod Rod Lincoln
TTITLE8=Daron Norwood - If It Wasn't For Her I Wouldn't Have You
TTITLE9=Wynonna - Is It Over Yet
TTITLE10=Joe Diffie - John Deere Green
TTITLE11=Shelby Lynne - Tell Me I'm Crazy
TTITLE12=Billy Joe Shaver - The Hottest Thing In Town
TTITLE13=Ricky Lynn Gregg - Three Nickels and a Dime
TTITLE14=Larry Stewart - We Can Love
TTITLE15=Kenny Chesney - Whatever It Takes
TTITLE16=Jamie O'Hara - What's A Good Ol' Boy To Do
TTITLE17=Kim Perry - Why Are All The Good Ones Gone
TTITLE18=Carpenter/R Cash/Shawn Colvin - You Ain't Goin Nowhere
TTITLE19=Andy Landis - He's Knocking
TTITLE20=Don Richmond - Ask The Man Upstairs
TTITLE21=Joe Diffie Station Liners
TTITLE22=Joe Diffie Interview
EXTD=YEAR: 1993
EXTT0=
EXTT1=
EXTT2=
EXTT3=
EXTT4=
EXTT5=
EXTT6=
EXTT7=
EXTT8=
EXTT9=
EXTT10=
EXTT11=
EXTT12=
EXTT13=
EXTT14=
EXTT15=
EXTT16=
EXTT17=
EXTT18=
EXTT19=
EXTT20=
EXTT21=
EXTT22=
PLAYORDER=
